<svg xmlns="http://www.w3.org/2000/svg" xmlns:xlink="http://www.w3.org/1999/xlink" width="48" zoomAndPan="magnify" viewBox="0 0 36 36.000001" height="48" preserveAspectRatio="xMidYMid meet" version="1.0"><defs><clipPath id="5f9a0440e3"><path d="M 0.488281 0 L 35.511719 0 L 35.511719 35.027344 L 0.488281 35.027344 Z M 0.488281 0 " clip-rule="nonzero"/></clipPath><clipPath id="d8936196f2"><path d="M 9.210938 7.628906 L 26.722656 7.628906 L 26.722656 27.332031 L 9.210938 27.332031 Z M 9.210938 7.628906 " clip-rule="nonzero"/></clipPath></defs><g clip-path="url(#5f9a0440e3)"><path fill="#9d293a" d="M 9.242188 0 L 26.757812 0 C 27.332031 0 27.902344 0.0546875 28.464844 0.167969 C 29.027344 0.28125 29.578125 0.445312 30.109375 0.667969 C 30.640625 0.886719 31.144531 1.15625 31.621094 1.476562 C 32.101562 1.796875 32.542969 2.160156 32.949219 2.566406 C 33.355469 2.972656 33.71875 3.414062 34.039062 3.890625 C 34.355469 4.371094 34.625 4.875 34.847656 5.40625 C 35.066406 5.9375 35.234375 6.484375 35.34375 7.046875 C 35.457031 7.613281 35.511719 8.183594 35.511719 8.757812 L 35.511719 26.269531 C 35.511719 26.84375 35.457031 27.414062 35.34375 27.980469 C 35.234375 28.542969 35.066406 29.089844 34.847656 29.621094 C 34.625 30.152344 34.355469 30.65625 34.039062 31.136719 C 33.71875 31.613281 33.355469 32.054688 32.949219 32.460938 C 32.542969 32.867188 32.101562 33.230469 31.621094 33.550781 C 31.144531 33.871094 30.640625 34.140625 30.109375 34.359375 C 29.578125 34.582031 29.027344 34.746094 28.464844 34.859375 C 27.902344 34.972656 27.332031 35.027344 26.757812 35.027344 L 9.242188 35.027344 C 8.667969 35.027344 8.097656 34.972656 7.535156 34.859375 C 6.972656 34.746094 6.421875 34.582031 5.890625 34.359375 C 5.359375 34.140625 4.855469 33.871094 4.378906 33.550781 C 3.898438 33.230469 3.457031 32.867188 3.050781 32.460938 C 2.644531 32.054688 2.28125 31.613281 1.960938 31.136719 C 1.644531 30.65625 1.375 30.152344 1.152344 29.621094 C 0.933594 29.089844 0.765625 28.542969 0.65625 27.980469 C 0.542969 27.414062 0.488281 26.84375 0.488281 26.269531 L 0.488281 8.757812 C 0.488281 8.183594 0.542969 7.613281 0.65625 7.046875 C 0.765625 6.484375 0.933594 5.9375 1.152344 5.40625 C 1.375 4.875 1.644531 4.371094 1.960938 3.890625 C 2.28125 3.414062 2.644531 2.972656 3.050781 2.566406 C 3.457031 2.160156 3.898438 1.796875 4.378906 1.476562 C 4.855469 1.15625 5.359375 0.886719 5.890625 0.667969 C 6.421875 0.445312 6.972656 0.28125 7.535156 0.167969 C 8.097656 0.0546875 8.667969 0 9.242188 0 Z M 9.242188 0 " fill-opacity="1" fill-rule="nonzero"/></g><path fill="#9d293a" d="M 11.433594 15.617188 L 11.433594 21.363281 C 11.433594 22.71875 11.433594 23.394531 11.699219 23.703125 C 11.929688 23.972656 12.273438 24.113281 12.625 24.078125 C 13.03125 24.042969 13.503906 23.554688 14.445312 22.578125 L 15.121094 21.875 C 15.375 21.613281 15.503906 21.480469 15.652344 21.386719 C 15.785156 21.304688 15.929688 21.242188 16.082031 21.203125 C 16.253906 21.164062 16.4375 21.164062 16.800781 21.164062 L 19.898438 21.164062 C 21.53125 21.164062 22.347656 21.164062 22.972656 20.84375 C 23.523438 20.5625 23.96875 20.117188 24.25 19.570312 C 24.566406 18.945312 24.566406 18.125 24.566406 16.492188 L 24.566406 15.617188 C 24.566406 13.980469 24.566406 13.164062 24.25 12.539062 C 23.96875 11.992188 23.523438 11.542969 22.972656 11.265625 C 22.347656 10.945312 21.53125 10.945312 19.898438 10.945312 L 16.101562 10.945312 C 14.46875 10.945312 13.652344 10.945312 13.027344 11.265625 C 12.476562 11.542969 12.03125 11.992188 11.75 12.539062 C 11.433594 13.164062 11.433594 13.980469 11.433594 15.617188 Z M 15.082031 16.785156 C 15.484375 16.785156 15.8125 16.457031 15.8125 16.054688 C 15.8125 15.652344 15.484375 15.324219 15.082031 15.324219 C 14.679688 15.324219 14.351562 15.652344 14.351562 16.054688 C 14.351562 16.457031 14.679688 16.785156 15.082031 16.785156 Z M 18.730469 16.054688 C 18.730469 16.457031 18.402344 16.785156 18 16.785156 C 17.597656 16.785156 17.269531 16.457031 17.269531 16.054688 C 17.269531 15.652344 17.597656 15.324219 18 15.324219 C 18.402344 15.324219 18.730469 15.652344 18.730469 16.054688 Z M 20.917969 16.785156 C 21.320312 16.785156 21.648438 16.457031 21.648438 16.054688 C 21.648438 15.652344 21.320312 15.324219 20.917969 15.324219 C 20.515625 15.324219 20.1875 15.652344 20.1875 16.054688 C 20.1875 16.457031 20.515625 16.785156 20.917969 16.785156 Z M 20.917969 16.785156 " fill-opacity="1" fill-rule="evenodd"/><g clip-path="url(#d8936196f2)"><path fill="#ffffff" d="M 26.726562 18.660156 L 26.726562 10.28125 C 26.726562 10.078125 26.628906 9.890625 26.464844 9.777344 C 23.648438 7.800781 20.832031 7.621094 18 7.625 C 15.183594 7.625 12.367188 7.804688 9.535156 9.773438 C 9.371094 9.890625 9.273438 10.078125 9.273438 10.28125 C 9.273438 10.28125 9.273438 14.492188 9.273438 18.660156 C 9.273438 23.480469 13.179688 27.390625 18 27.390625 L 18 26.773438 C 18 27.390625 18 27.390625 18 27.390625 C 22.820312 27.390625 26.726562 23.480469 26.726562 18.660156 Z M 25.496094 10.605469 C 23.003906 8.96875 20.503906 8.851562 18 8.855469 C 15.511719 8.859375 13.007812 8.972656 10.503906 10.605469 L 10.503906 18.660156 C 10.503906 22.800781 13.859375 26.15625 18 26.15625 C 18 26.15625 18 26.773438 18 26.773438 L 18 26.15625 C 22.140625 26.15625 25.496094 22.800781 25.496094 18.660156 Z M 25.496094 10.605469 " fill-opacity="1" fill-rule="evenodd"/></g><path fill="#ffffff" d="M 21.859375 17.054688 C 21.859375 16.710938 21.585938 16.4375 21.246094 16.4375 L 14.753906 16.4375 C 14.414062 16.4375 14.140625 16.710938 14.140625 17.054688 L 14.140625 21.585938 C 14.140625 21.925781 14.414062 22.199219 14.753906 22.199219 L 21.246094 22.199219 C 21.585938 22.199219 21.859375 21.925781 21.859375 21.585938 Z M 21.859375 17.054688 " fill-opacity="1" fill-rule="evenodd"/><path fill="#ffffff" d="M 21.050781 15.859375 C 21.050781 15.050781 20.726562 14.277344 20.15625 13.703125 C 19.582031 13.132812 18.808594 12.8125 18 12.8125 L 18 13.425781 C 18 12.8125 18 12.8125 18 12.8125 C 17.191406 12.8125 16.414062 13.132812 15.84375 13.703125 C 15.269531 14.277344 14.949219 15.050781 14.949219 15.859375 C 14.949219 16.519531 14.949219 17.054688 14.949219 17.054688 C 14.949219 17.394531 15.226562 17.667969 15.566406 17.667969 L 20.433594 17.667969 C 20.773438 17.667969 21.050781 17.394531 21.050781 17.054688 Z M 19.816406 16.4375 L 19.816406 15.859375 C 19.816406 15.378906 19.625 14.917969 19.285156 14.574219 C 18.945312 14.234375 18.480469 14.042969 18 14.042969 L 18 13.425781 L 18 14.042969 C 17.515625 14.042969 17.054688 14.234375 16.714844 14.574219 C 16.375 14.917969 16.183594 15.378906 16.183594 15.859375 L 16.183594 16.4375 Z M 19.816406 16.4375 " fill-opacity="1" fill-rule="evenodd"/></svg>