<svg xmlns="http://www.w3.org/2000/svg" xmlns:xlink="http://www.w3.org/1999/xlink" width="48" zoomAndPan="magnify" viewBox="0 0 36 36.000001" height="48" preserveAspectRatio="xMidYMid meet" version="1.0"><defs><clipPath id="c3777e96ac"><path d="M 0.488281 0 L 35.511719 0 L 35.511719 35.027344 L 0.488281 35.027344 Z M 0.488281 0 " clip-rule="nonzero"/></clipPath><clipPath id="5cd44b677c"><path d="M 9 9.183594 L 13 9.183594 L 13 12 L 9 12 Z M 9 9.183594 " clip-rule="nonzero"/></clipPath><clipPath id="1605d79878"><path d="M 8.113281 13 L 15 13 L 15 25.96875 L 8.113281 25.96875 Z M 8.113281 13 " clip-rule="nonzero"/></clipPath><clipPath id="1a21f19052"><path d="M 15 13 L 21 13 L 21 25.96875 L 15 25.96875 Z M 15 13 " clip-rule="nonzero"/></clipPath><clipPath id="6728761fa6"><path d="M 19 13 L 24 13 L 24 25.96875 L 19 25.96875 Z M 19 13 " clip-rule="nonzero"/></clipPath><clipPath id="42d474308a"><path d="M 22 13 L 27.816406 13 L 27.816406 25.96875 L 22 25.96875 Z M 22 13 " clip-rule="nonzero"/></clipPath></defs><g clip-path="url(#c3777e96ac)"><path fill="#9d293a" d="M 9.242188 0 L 26.757812 0 C 27.332031 0 27.902344 0.0546875 28.464844 0.167969 C 29.027344 0.28125 29.578125 0.445312 30.109375 0.667969 C 30.640625 0.886719 31.144531 1.15625 31.621094 1.476562 C 32.101562 1.796875 32.542969 2.160156 32.949219 2.566406 C 33.355469 2.972656 33.71875 3.414062 34.039062 3.890625 C 34.355469 4.371094 34.625 4.875 34.847656 5.40625 C 35.066406 5.9375 35.234375 6.484375 35.34375 7.046875 C 35.457031 7.613281 35.511719 8.183594 35.511719 8.757812 L 35.511719 26.269531 C 35.511719 26.84375 35.457031 27.414062 35.34375 27.980469 C 35.234375 28.542969 35.066406 29.089844 34.847656 29.621094 C 34.625 30.152344 34.355469 30.65625 34.039062 31.136719 C 33.71875 31.613281 33.355469 32.054688 32.949219 32.460938 C 32.542969 32.867188 32.101562 33.230469 31.621094 33.550781 C 31.144531 33.871094 30.640625 34.140625 30.109375 34.359375 C 29.578125 34.582031 29.027344 34.746094 28.464844 34.859375 C 27.902344 34.972656 27.332031 35.027344 26.757812 35.027344 L 9.242188 35.027344 C 8.667969 35.027344 8.097656 34.972656 7.535156 34.859375 C 6.972656 34.746094 6.421875 34.582031 5.890625 34.359375 C 5.359375 34.140625 4.855469 33.871094 4.378906 33.550781 C 3.898438 33.230469 3.457031 32.867188 3.050781 32.460938 C 2.644531 32.054688 2.28125 31.613281 1.960938 31.136719 C 1.644531 30.65625 1.375 30.152344 1.152344 29.621094 C 0.933594 29.089844 0.765625 28.542969 0.65625 27.980469 C 0.542969 27.414062 0.488281 26.84375 0.488281 26.269531 L 0.488281 8.757812 C 0.488281 8.183594 0.542969 7.613281 0.65625 7.046875 C 0.765625 6.484375 0.933594 5.9375 1.152344 5.40625 C 1.375 4.875 1.644531 4.371094 1.960938 3.890625 C 2.28125 3.414062 2.644531 2.972656 3.050781 2.566406 C 3.457031 2.160156 3.898438 1.796875 4.378906 1.476562 C 4.855469 1.15625 5.359375 0.886719 5.890625 0.667969 C 6.421875 0.445312 6.972656 0.28125 7.535156 0.167969 C 8.097656 0.0546875 8.667969 0 9.242188 0 Z M 9.242188 0 " fill-opacity="1" fill-rule="nonzero"/></g><path fill="#9d293a" d="M 11.433594 15.617188 L 11.433594 21.363281 C 11.433594 22.71875 11.433594 23.394531 11.699219 23.703125 C 11.929688 23.972656 12.273438 24.113281 12.625 24.078125 C 13.03125 24.042969 13.503906 23.554688 14.445312 22.578125 L 15.121094 21.875 C 15.375 21.613281 15.503906 21.480469 15.652344 21.386719 C 15.785156 21.304688 15.929688 21.242188 16.082031 21.203125 C 16.253906 21.164062 16.4375 21.164062 16.800781 21.164062 L 19.898438 21.164062 C 21.53125 21.164062 22.347656 21.164062 22.972656 20.84375 C 23.523438 20.5625 23.96875 20.117188 24.25 19.570312 C 24.566406 18.945312 24.566406 18.125 24.566406 16.492188 L 24.566406 15.617188 C 24.566406 13.980469 24.566406 13.164062 24.25 12.539062 C 23.96875 11.992188 23.523438 11.542969 22.972656 11.265625 C 22.347656 10.945312 21.53125 10.945312 19.898438 10.945312 L 16.101562 10.945312 C 14.46875 10.945312 13.652344 10.945312 13.027344 11.265625 C 12.476562 11.542969 12.03125 11.992188 11.75 12.539062 C 11.433594 13.164062 11.433594 13.980469 11.433594 15.617188 Z M 15.082031 16.785156 C 15.484375 16.785156 15.8125 16.457031 15.8125 16.054688 C 15.8125 15.652344 15.484375 15.324219 15.082031 15.324219 C 14.679688 15.324219 14.351562 15.652344 14.351562 16.054688 C 14.351562 16.457031 14.679688 16.785156 15.082031 16.785156 Z M 18.730469 16.054688 C 18.730469 16.457031 18.402344 16.785156 18 16.785156 C 17.597656 16.785156 17.269531 16.457031 17.269531 16.054688 C 17.269531 15.652344 17.597656 15.324219 18 15.324219 C 18.402344 15.324219 18.730469 15.652344 18.730469 16.054688 Z M 20.917969 16.785156 C 21.320312 16.785156 21.648438 16.457031 21.648438 16.054688 C 21.648438 15.652344 21.320312 15.324219 20.917969 15.324219 C 20.515625 15.324219 20.1875 15.652344 20.1875 16.054688 C 20.1875 16.457031 20.515625 16.785156 20.917969 16.785156 Z M 20.917969 16.785156 " fill-opacity="1" fill-rule="evenodd"/><g clip-path="url(#5cd44b677c)"><path fill="#ffffff" d="M 11.085938 10.886719 C 11.183594 10.867188 11.484375 10.820312 11.703125 10.894531 C 11.847656 10.765625 12.082031 10.695312 12.210938 10.664062 C 12.136719 10.609375 12.058594 10.558594 11.976562 10.515625 C 12.175781 9.757812 10.429688 9.183594 11.148438 9.667969 C 11.351562 9.804688 11.316406 9.972656 11.199219 10.132812 C 10.804688 9.808594 9.828125 10.019531 10.421875 10.074219 C 10.683594 10.097656 10.675781 10.324219 10.597656 10.550781 C 10.304688 10.71875 10.078125 10.984375 9.957031 11.304688 L 10.449219 11.207031 C 10.59375 11 10.964844 10.910156 11.085938 10.886719 Z M 11.085938 10.886719 " fill-opacity="1" fill-rule="nonzero"/></g><path fill="#ffffff" d="M 11.851562 11.652344 C 11.746094 11.855469 11.550781 12 11.316406 12.046875 C 10.980469 12.117188 10.644531 11.957031 10.480469 11.664062 L 9.917969 11.773438 L 9.867188 11.871094 C 9.894531 12.648438 10.535156 13.269531 11.320312 13.269531 C 12.125 13.269531 12.773438 12.621094 12.773438 11.816406 C 12.773438 11.777344 12.773438 11.738281 12.769531 11.703125 C 12.691406 11.753906 12.597656 11.792969 12.5 11.8125 C 12.265625 11.859375 12.03125 11.796875 11.851562 11.652344 Z M 10.855469 12.378906 C 10.855469 12.378906 11.753906 12.527344 12.304688 12.160156 C 12.304688 12.160156 11.757812 13.371094 10.855469 12.378906 Z M 10.855469 12.378906 " fill-opacity="1" fill-rule="nonzero"/><g clip-path="url(#1605d79878)"><path fill="#ffffff" d="M 12.375 17.625 C 12.429688 17.550781 12.464844 17.507812 12.464844 17.507812 L 12.570312 17.589844 C 12.703125 17.398438 12.847656 17.230469 12.972656 17.085938 C 12.996094 17.054688 13.03125 17.015625 13.070312 16.972656 L 13.070312 15.675781 C 12.972656 15.359375 12.867188 15.144531 12.773438 15.007812 L 12.90625 14.9375 C 13.101562 15.222656 13.308594 15.757812 13.414062 16.703125 C 13.425781 16.792969 13.230469 17.015625 13.085938 17.183594 C 12.960938 17.328125 12.816406 17.492188 12.6875 17.6875 L 13.492188 18.339844 C 13.59375 18.175781 13.730469 18.019531 13.867188 17.859375 C 14.164062 17.515625 14.503906 17.128906 14.441406 16.585938 C 14.339844 15.667969 14.132812 14.957031 13.820312 14.449219 C 13.683594 14.226562 13.527344 14.046875 13.351562 13.90625 C 12.921875 13.566406 12.527344 13.59375 12.453125 13.605469 C 12.449219 13.605469 12.449219 13.605469 12.449219 13.605469 L 10.191406 13.605469 C 10.1875 13.605469 10.1875 13.605469 10.1875 13.605469 C 10.113281 13.59375 9.71875 13.566406 9.289062 13.90625 C 9.109375 14.046875 8.953125 14.226562 8.816406 14.449219 C 8.507812 14.957031 8.296875 15.667969 8.195312 16.585938 C 8.136719 17.128906 8.472656 17.515625 8.769531 17.859375 C 8.910156 18.019531 9.042969 18.175781 9.144531 18.339844 L 9.953125 17.6875 C 9.820312 17.492188 9.679688 17.328125 9.554688 17.183594 C 9.410156 17.015625 9.214844 16.792969 9.222656 16.703125 C 9.328125 15.757812 9.539062 15.222656 9.734375 14.9375 L 9.863281 15.007812 C 9.769531 15.144531 9.664062 15.359375 9.570312 15.675781 L 9.570312 16.972656 C 9.605469 17.015625 9.640625 17.054688 9.664062 17.085938 C 9.792969 17.230469 9.9375 17.398438 10.070312 17.589844 L 10.171875 17.507812 C 10.171875 17.507812 10.210938 17.550781 10.265625 17.625 L 8.902344 18.730469 C 8.902344 18.730469 9.042969 19.414062 9.378906 19.882812 C 9.394531 19.902344 9.410156 19.921875 9.425781 19.941406 L 9.019531 24.917969 C 8.984375 25.355469 9.308594 25.742188 9.75 25.777344 C 10.191406 25.816406 10.578125 25.488281 10.613281 25.046875 L 11.101562 19.027344 L 11.535156 19.027344 L 12.027344 25.046875 C 12.0625 25.488281 12.449219 25.816406 12.886719 25.777344 C 13.328125 25.742188 13.65625 25.355469 13.621094 24.917969 L 13.214844 19.941406 C 13.230469 19.921875 13.242188 19.902344 13.257812 19.882812 C 13.597656 19.414062 13.738281 18.730469 13.738281 18.730469 Z M 12.375 17.625 " fill-opacity="1" fill-rule="nonzero"/></g><g clip-path="url(#1a21f19052)"><path fill="#ffffff" d="M 19.847656 19.914062 C 19.832031 19.917969 19.816406 19.917969 19.800781 19.917969 C 19.425781 19.917969 19.117188 19.625 19.089844 19.253906 C 18.839844 15.425781 19.589844 14.175781 19.941406 13.804688 C 19.878906 13.773438 19.808594 13.757812 19.738281 13.753906 C 19.722656 13.753906 19.703125 13.75 19.6875 13.75 L 17.1875 13.75 C 17.171875 13.75 17.152344 13.753906 17.136719 13.753906 C 17.023438 13.757812 16.914062 13.796875 16.824219 13.871094 C 16.628906 14.027344 15.679688 15.03125 15.953125 19.238281 C 15.972656 19.511719 16.199219 19.722656 16.46875 19.722656 C 16.480469 19.722656 16.492188 19.722656 16.503906 19.722656 C 16.605469 19.714844 16.699219 19.679688 16.777344 19.621094 L 17.128906 25.054688 C 17.15625 25.496094 17.539062 25.832031 17.980469 25.800781 C 18.152344 25.789062 18.3125 25.722656 18.4375 25.617188 C 18.5625 25.722656 18.71875 25.789062 18.894531 25.800781 C 19.335938 25.832031 19.714844 25.496094 19.746094 25.054688 L 20.007812 21.027344 L 19.933594 19.90625 C 19.90625 19.910156 19.875 19.914062 19.847656 19.914062 Z M 19.847656 19.914062 " fill-opacity="1" fill-rule="nonzero"/></g><path fill="#ffffff" d="M 19.890625 11.925781 C 19.890625 11.125 19.242188 10.472656 18.4375 10.472656 C 17.632812 10.472656 16.980469 11.125 16.980469 11.925781 C 16.980469 12.730469 17.632812 13.382812 18.4375 13.382812 C 19.242188 13.382812 19.890625 12.730469 19.890625 11.925781 Z M 18.734375 11.714844 C 18.863281 11.714844 18.964844 11.816406 18.964844 11.941406 C 18.964844 12.070312 18.863281 12.171875 18.734375 12.171875 C 18.609375 12.171875 18.507812 12.070312 18.507812 11.941406 C 18.507812 11.816406 18.609375 11.714844 18.734375 11.714844 Z M 17.753906 12.171875 C 17.628906 12.171875 17.527344 12.070312 17.527344 11.941406 C 17.527344 11.816406 17.628906 11.714844 17.753906 11.714844 C 17.878906 11.714844 17.980469 11.816406 17.980469 11.941406 C 17.980469 12.070312 17.878906 12.171875 17.753906 12.171875 Z M 17.753906 12.171875 " fill-opacity="1" fill-rule="nonzero"/><g clip-path="url(#6728761fa6)"><path fill="#ffffff" d="M 23.179688 19.914062 C 23.164062 19.917969 23.148438 19.917969 23.132812 19.917969 C 22.757812 19.917969 22.449219 19.625 22.421875 19.253906 C 22.171875 15.425781 22.921875 14.175781 23.273438 13.804688 C 23.210938 13.773438 23.140625 13.757812 23.070312 13.753906 C 23.054688 13.753906 23.035156 13.75 23.019531 13.75 L 20.519531 13.75 C 20.503906 13.75 20.484375 13.753906 20.46875 13.753906 C 20.355469 13.757812 20.246094 13.796875 20.15625 13.871094 C 19.960938 14.027344 19.011719 15.03125 19.285156 19.238281 C 19.304688 19.511719 19.53125 19.722656 19.800781 19.722656 C 19.8125 19.722656 19.824219 19.722656 19.835938 19.722656 C 19.9375 19.714844 20.03125 19.679688 20.109375 19.621094 L 20.460938 25.054688 C 20.488281 25.496094 20.871094 25.832031 21.3125 25.800781 C 21.484375 25.789062 21.644531 25.722656 21.769531 25.617188 C 21.894531 25.722656 22.050781 25.789062 22.226562 25.800781 C 22.667969 25.832031 23.046875 25.496094 23.078125 25.054688 L 23.339844 21.03125 L 23.265625 19.90625 C 23.238281 19.910156 23.207031 19.914062 23.179688 19.914062 Z M 23.179688 19.914062 " fill-opacity="1" fill-rule="nonzero"/></g><path fill="#ffffff" d="M 23.222656 11.925781 C 23.222656 11.125 22.574219 10.472656 21.769531 10.472656 C 20.964844 10.472656 20.3125 11.125 20.3125 11.925781 C 20.3125 12.730469 20.964844 13.382812 21.769531 13.382812 C 22.574219 13.382812 23.222656 12.730469 23.222656 11.925781 Z M 22.070312 11.714844 C 22.195312 11.714844 22.296875 11.816406 22.296875 11.941406 C 22.296875 12.070312 22.195312 12.171875 22.070312 12.171875 C 21.941406 12.171875 21.839844 12.070312 21.839844 11.941406 C 21.839844 11.816406 21.941406 11.714844 22.070312 11.714844 Z M 21.085938 12.171875 C 20.960938 12.171875 20.859375 12.070312 20.859375 11.941406 C 20.859375 11.816406 20.960938 11.714844 21.085938 11.714844 C 21.210938 11.714844 21.3125 11.816406 21.3125 11.941406 C 21.3125 12.070312 21.210938 12.171875 21.085938 12.171875 Z M 21.085938 12.171875 " fill-opacity="1" fill-rule="nonzero"/><g clip-path="url(#42d474308a)"><path fill="#ffffff" d="M 26.714844 13.871094 C 26.625 13.796875 26.515625 13.757812 26.402344 13.753906 C 26.386719 13.753906 26.367188 13.75 26.351562 13.75 L 23.851562 13.75 C 23.835938 13.75 23.816406 13.753906 23.800781 13.753906 C 23.6875 13.757812 23.578125 13.796875 23.488281 13.871094 C 23.292969 14.027344 22.34375 15.03125 22.617188 19.238281 C 22.636719 19.511719 22.863281 19.722656 23.132812 19.722656 C 23.144531 19.722656 23.15625 19.722656 23.167969 19.722656 C 23.269531 19.714844 23.363281 19.679688 23.441406 19.621094 L 23.792969 25.054688 C 23.820312 25.496094 24.203125 25.832031 24.644531 25.800781 C 24.816406 25.789062 24.976562 25.722656 25.101562 25.617188 C 25.226562 25.722656 25.382812 25.789062 25.558594 25.800781 C 26 25.832031 26.382812 25.496094 26.410156 25.054688 L 26.761719 19.621094 C 26.839844 19.679688 26.933594 19.714844 27.035156 19.722656 C 27.046875 19.722656 27.058594 19.722656 27.070312 19.722656 C 27.339844 19.722656 27.566406 19.511719 27.585938 19.238281 C 27.859375 15.03125 26.910156 14.027344 26.714844 13.871094 Z M 26.714844 13.871094 " fill-opacity="1" fill-rule="nonzero"/></g><path fill="#ffffff" d="M 26.558594 11.925781 C 26.558594 11.125 25.90625 10.472656 25.101562 10.472656 C 24.296875 10.472656 23.644531 11.125 23.644531 11.925781 C 23.644531 12.730469 24.296875 13.382812 25.101562 13.382812 C 25.90625 13.382812 26.558594 12.730469 26.558594 11.925781 Z M 25.402344 11.714844 C 25.527344 11.714844 25.628906 11.816406 25.628906 11.941406 C 25.628906 12.070312 25.527344 12.171875 25.402344 12.171875 C 25.273438 12.171875 25.171875 12.070312 25.171875 11.941406 C 25.171875 11.816406 25.273438 11.714844 25.402344 11.714844 Z M 24.417969 12.171875 C 24.292969 12.171875 24.191406 12.070312 24.191406 11.941406 C 24.191406 11.816406 24.292969 11.714844 24.417969 11.714844 C 24.542969 11.714844 24.644531 11.816406 24.644531 11.941406 C 24.644531 12.070312 24.542969 12.171875 24.417969 12.171875 Z M 24.417969 12.171875 " fill-opacity="1" fill-rule="nonzero"/><path fill="#ffffff" d="M 12.988281 10.917969 C 12.925781 10.605469 11.921875 10.765625 11.734375 11.050781 C 11.476562 10.878906 10.640625 11.054688 10.53125 11.324219 L 9.703125 11.488281 L 9.464844 11.945312 L 9.636719 12.03125 L 9.832031 11.660156 L 10.554688 11.515625 C 10.667969 11.808594 10.976562 11.984375 11.292969 11.921875 C 11.558594 11.867188 11.753906 11.660156 11.804688 11.410156 C 11.949219 11.621094 12.207031 11.738281 12.476562 11.683594 C 12.828125 11.613281 13.058594 11.269531 12.988281 10.917969 Z M 12.988281 10.917969 " fill-opacity="1" fill-rule="nonzero"/></svg>